<svg id="Layer_1" data-name="Layer 1" xmlns="http://www.w3.org/2000/svg" width="64" height="64" viewBox="0 0 64 64"><defs><style>.cls-1{fill:#666;}</style></defs><title>emails</title><path class="cls-1" d="M57,16H7a2.66,2.66,0,0,0-3,3V53c0,2.07.92,3,3,3H57c2,0,3-1,3-3V19A2.66,2.66,0,0,0,57,16ZM43.71,38.29A1,1,0,1,0,42.3,39.7L56.59,54H7.41L21.7,39.71a1,1,0,0,0-1.41-1.41L6,52.59V19.25L29.11,42.36a4,4,0,0,0,5.66,0L58,19.13V52.58ZM7.58,18H56.3l-22.94,23a2,2,0,0,1-2.83,0Z"/><path class="cls-1" d="M9,14H55a1,1,0,0,0,0-2H9A1,1,0,0,0,9,14Z"/><path class="cls-1" d="M13,10H51a1,1,0,1,0,0-2H13A1,1,0,0,0,13,10Z"/></svg>