<svg version="1" xmlns="http://www.w3.org/2000/svg" width="24" height="24" viewBox="0 0 24 24"><path d="M22.791 6.093l-7-5h-.141l-.15-.062-.15.062h-.141l-6.709 4.793-6.709-4.793c-.153-.11-.354-.124-.52-.038-.167.086-.271.257-.271.445v16c0 .162.078.313.209.407l7 5h.065c.072.04.138.093.226.093l.225-.093h.065l6.709-4.792 6.709 4.792c.088.062.189.093.292.093.078 0 .157-.019.229-.056.167-.085.271-.256.271-.444v-16c0-.162-.078-.313-.209-.407zm-13.791.664l6-4.286v14.771l-6 4.286v-14.771zm-7-4.285l6 4.285v14.771l-6-4.286v-14.77zm20 19.056l-6-4.285v-14.772l6 4.286v14.771z"/></svg>